<?xml version="1.0" encoding="utf-8"?>
<!-- Generator: Adobe Illustrator 27.8.1, SVG Export Plug-In . SVG Version: 6.00 Build 0)  -->
<svg version="1.1" id="Layer_1" xmlns="http://www.w3.org/2000/svg" xmlns:xlink="http://www.w3.org/1999/xlink" x="0px" y="0px"
	 viewBox="0 0 1024 313.64" style="enable-background:new 0 0 1024 313.64;" xml:space="preserve">
<style type="text/css">
	.st0{fill:#FFDEC5;}
	.st1{font-family:'FONTSPRINGDEMO-NordiqueProBold';}
	.st2{font-size:153.4223px;}
</style>
<text transform="matrix(1 0 0 1 173.877 291.6205)" class="st0 st1 st2">ThirdCoffee</text>
<g>
	<g>
		<path class="st0" d="M194.32,162.51c0,0-57.85-25.64,45.92-31.61c0,0-93.13-6.86-139.05,18.19c0,0-24.26-7.14-23.86-15.31
			c0.4-8.17,22.67-17.18,78.52-19.88c51.94-2.51,81.88-0.18,89.66,0.64c11.06,18.09-0.61,35.94-0.61,35.94
			c18.89-10.73,21.67-33.6,21.67-33.6c6.16,0.4,16.3,1.59,16.3,1.59l-16.25-3.98c-0.45-10.73-8.6-16.9-8.6-16.9
			c8.15,13.91-2.59,26.64-2.59,26.64c0.2-33.2-41.55-50.29-87.66-66.4c-46.12-16.1-11.33-37.37-11.33-37.37
			c-21.07,29.42,49.1,42.34,49.1,42.34c-24.85-7.36-44.93-18.49-47.11-30.81C156.25,19.68,175.73,0,175.73,0
			c-64.01,35.98-27.63,56.26-11.73,62.82c15.9,6.56,47.71,20.67,72.56,41.55c3.17,2.66,5.66,5.4,7.61,8.14
			c-7.89-0.4-55.45-2.69-88.17-1.73c-35.78,1.04-84.24,8.8-84.83,23.41c0,0-9.38,70.37,68.07,114.8c0,0-66.58-41.75-65.08-109.73
			c0,0,11.03,27.73,112.41,28.63c40.85,0.3,93.63-5.96,113.91-11.03C300.47,156.84,228.61,164.6,194.32,162.51z"/>
		<path class="st0" d="M161.22,280.29v-2.98c-57.25,0-42.94-19.08-42.94-19.08C93.04,279.1,161.22,280.29,161.22,280.29z"/>
		<path class="st0" d="M52.48,269.26c0-9.64,9.87-20.57,38.56-28.13c0,0-45.12,7.16-45.12,29.22c0,22.07,46.72,33.99,118.28,33.79
			C164.2,304.15,52.48,299.38,52.48,269.26z"/>
		<path class="st0" d="M64.01,275.12l-3.18,0.99c20.48,24.65,93.43,23.85,93.43,23.85C79.72,296.79,64.01,275.12,64.01,275.12z"/>
	</g>
</g>
</svg>
